<svg xmlns="http://www.w3.org/2000/svg" width="148" height="32" viewBox="0 0 148 32" fill="#234213">
  <path fill-rule="evenodd" clip-rule="evenodd" d="M79.1272 22.4984C77.5183 24.1387 75.5941 24.9634 73.3646 24.9634C71.5608 24.9634 70.0285 24.5939 68.4642 23.6806V19.9199C69.7222 20.7776 71.3035 21.5943 72.8623 21.5943C76.1147 21.5943 78.0512 19.3443 78.0512 16.1557C78.0512 12.9646 76.0483 10.6479 72.7949 10.6479C71.3413 10.6479 70.1632 11.1732 69.2429 12.2256C68.2564 13.3658 67.7464 14.9956 67.7464 17.1503V32H67.5014C65.7084 32 64.2559 30.5397 64.2559 28.7381V16.5932C64.2559 11.4393 67.3906 7.27832 72.7786 7.27832C75.4389 7.27832 77.6 8.19258 79.2385 10.0294C80.7789 11.7457 81.5415 13.9203 81.5415 16.5371C81.5415 18.8657 80.736 20.8571 79.1272 22.4984ZM116.922 22.3727C115.319 24.1014 113.257 24.9635 110.758 24.9635C108.119 24.9635 105.969 24.0492 104.332 22.2125C102.792 20.4749 102.029 18.2986 102.029 15.7051C102.029 11.1145 105.554 7.27845 110.193 7.27845C111.983 7.27845 113.537 7.6581 115.106 8.52336V12.3224C113.848 11.4647 112.268 10.648 110.709 10.648C107.455 10.648 105.518 12.8975 105.518 16.0874C105.518 19.2336 107.568 21.5944 110.775 21.5944C112.227 21.5944 113.423 21.0475 114.38 19.9456C115.33 18.8508 115.824 17.2422 115.824 15.0814V3.26177C115.824 1.45979 117.278 0 119.069 0H119.314V15.6358C119.314 18.3895 118.522 20.6435 116.922 22.3727ZM126.777 5.60943C126.411 6.02175 125.886 6.21152 125.246 6.21152C124.048 6.21152 123.19 5.3234 123.19 4.12841C123.19 2.90514 124.031 2.07959 125.246 2.07959C126.414 2.07959 127.301 2.95016 127.301 4.12841C127.301 4.7111 127.132 5.2108 126.777 5.60943ZM144.514 15.0813C144.514 13.6983 143.993 12.6034 142.948 11.774C142.005 11.0275 140.828 10.6479 139.396 10.6479C136.238 10.6479 134.209 13.1301 134.209 16.1906C134.209 19.1363 136.359 21.5943 139.364 21.5943C141.453 21.5943 142.571 20.3676 143.762 18.8393V23.2457C143.155 23.7031 142.457 24.2014 141.744 24.4941C140.992 24.8097 140.093 24.9634 139.056 24.9634C134.032 24.9634 130.718 20.7811 130.718 15.9483C130.718 13.4664 131.485 11.4146 133.029 9.81489C134.668 8.11928 136.817 7.27832 139.448 7.27832C144.436 7.27832 148.005 10.157 148.005 15.3584V24.6168H147.761C145.967 24.6168 144.514 23.1566 144.514 21.3546V15.0813ZM96.7305 14.0876C96.2895 12.7164 95.7362 12.0419 94.4642 11.3281C91.4395 9.62939 88.4627 11.0756 87.0775 14.0743L96.7305 14.0876ZM94.0665 24.9118C91.837 25.3881 89.6493 25.0208 87.5148 23.8218C85.4323 22.6534 84.0388 20.9154 83.3396 18.619C81.9267 13.9746 84.8208 8.7991 89.4768 7.54592C91.7839 6.92474 93.9971 7.20598 96.099 8.38638C99.5902 10.3481 100.863 13.3821 100.641 17.2916L86.5776 17.2634C86.7849 18.8578 87.7679 20.1054 89.1512 20.8814C90.5528 21.6685 91.8411 21.8566 93.0365 21.484C94.3646 21.065 95.4416 19.976 96.3174 18.9624L99.1829 21.0611C98.0141 23.1632 96.4226 24.4077 94.0665 24.9118ZM123.499 7.62533H126.99V24.6168H126.744C124.953 24.6168 123.499 23.1566 123.499 21.3546V7.62533Z" fill="#03AC0E"/>
  <path fill-rule="evenodd" clip-rule="evenodd" d="M79.1272 22.4984C77.5183 24.1387 75.5941 24.9634 73.3646 24.9634C71.5608 24.9634 70.0285 24.5939 68.4642 23.6806V19.9199C69.7222 20.7776 71.3035 21.5943 72.8623 21.5943C76.1147 21.5943 78.0512 19.3443 78.0512 16.1557C78.0512 12.9646 76.0483 10.6479 72.7949 10.6479C71.3413 10.6479 70.1632 11.1732 69.2429 12.2256C68.2564 13.3658 67.7464 14.9956 67.7464 17.1503V32H67.5014C65.7084 32 64.2559 30.5397 64.2559 28.7381V16.5932C64.2559 11.4393 67.3906 7.27832 72.7786 7.27832C75.4389 7.27832 77.6 8.19258 79.2385 10.0294C80.7789 11.7457 81.5415 13.9203 81.5415 16.5371C81.5415 18.8657 80.736 20.8571 79.1272 22.4984ZM116.922 22.3727C115.319 24.1014 113.257 24.9635 110.758 24.9635C108.119 24.9635 105.969 24.0492 104.332 22.2125C102.792 20.4749 102.029 18.2986 102.029 15.7051C102.029 11.1145 105.554 7.27845 110.193 7.27845C111.983 7.27845 113.537 7.6581 115.106 8.52336V12.3224C113.848 11.4647 112.268 10.648 110.709 10.648C107.455 10.648 105.518 12.8975 105.518 16.0874C105.518 19.2336 107.568 21.5944 110.775 21.5944C112.227 21.5944 113.423 21.0475 114.38 19.9456C115.33 18.8508 115.824 17.2422 115.824 15.0814V3.26177C115.824 1.45979 117.278 0 119.069 0H119.314V15.6358C119.314 18.3895 118.522 20.6435 116.922 22.3727ZM126.777 5.60943C126.411 6.02175 125.886 6.21152 125.246 6.21152C124.048 6.21152 123.19 5.3234 123.19 4.12841C123.19 2.90514 124.031 2.07959 125.246 2.07959C126.414 2.07959 127.301 2.95016 127.301 4.12841C127.301 4.7111 127.132 5.2108 126.777 5.60943ZM144.514 15.0813C144.514 13.6983 143.993 12.6034 142.948 11.774C142.005 11.0275 140.828 10.6479 139.396 10.6479C136.238 10.6479 134.209 13.1301 134.209 16.1906C134.209 19.1363 136.359 21.5943 139.364 21.5943C141.453 21.5943 142.571 20.3676 143.762 18.8393V23.2457C143.155 23.7031 142.457 24.2014 141.744 24.4941C140.992 24.8097 140.093 24.9634 139.056 24.9634C134.032 24.9634 130.718 20.7811 130.718 15.9483C130.718 13.4664 131.485 11.4146 133.029 9.81489C134.668 8.11928 136.817 7.27832 139.448 7.27832C144.436 7.27832 148.005 10.157 148.005 15.3584V24.6168H147.761C145.967 24.6168 144.514 23.1566 144.514 21.3546V15.0813ZM96.7305 14.0876C96.2895 12.7164 95.7362 12.0419 94.4642 11.3281C91.4395 9.62939 88.4627 11.0756 87.0775 14.0743L96.7305 14.0876ZM94.0665 24.9118C91.837 25.3881 89.6493 25.0208 87.5148 23.8218C85.4323 22.6534 84.0388 20.9154 83.3396 18.619C81.9267 13.9746 84.8208 8.7991 89.4768 7.54592C91.7839 6.92474 93.9971 7.20598 96.099 8.38638C99.5902 10.3481 100.863 13.3821 100.641 17.2916L86.5776 17.2634C86.7849 18.8578 87.7679 20.1054 89.1512 20.8814C90.5528 21.6685 91.8411 21.8566 93.0365 21.484C94.3646 21.065 95.4416 19.976 96.3174 18.9624L99.1829 21.0611C98.0141 23.1632 96.4226 24.4077 94.0665 24.9118ZM123.499 7.62533H126.99V24.6168H126.744C124.953 24.6168 123.499 23.1566 123.499 21.3546V7.62533Z" fill="white"/>
  <path fill-rule="evenodd" clip-rule="evenodd" d="M5.10826 24.617C1.69408 24.617 0 22.2831 0 19.0239V6.65869C0 4.85711 1.45347 3.39681 3.24595 3.39681H3.49105V7.62542H9.38862V10.995H3.49105V19.4141C3.49105 20.8457 4.12663 21.2479 5.48781 21.2479H9.38862V24.617H5.10826ZM25.3801 22.4694C23.6557 24.1309 21.583 24.9635 19.175 24.9635C16.7896 24.9635 14.7287 24.13 13.0043 22.4694C11.2742 20.8015 10.4115 18.6791 10.4115 16.1214C10.4115 11.1313 14.2029 7.27881 19.175 7.27881C21.5614 7.27881 23.628 8.11845 25.3629 9.79149C27.1041 11.4694 27.9737 13.5857 27.9737 16.1214C27.9737 18.6791 27.1102 20.8015 25.3801 22.4694ZM41.6997 11.7141C41.1876 12.5771 40.7905 13.196 40.5112 13.5699C40.2033 13.9765 39.8993 14.3014 39.5981 14.5261C42.0239 15.3136 42.9274 17.0025 42.9274 19.5188V24.617H42.6823C40.8898 24.617 39.4364 23.1567 39.4364 21.3548V19.8648C39.4364 18.2355 38.7094 17.1301 36.9917 17.1301H33.8217V24.617H33.5766C31.7841 24.617 30.332 23.1567 30.332 21.3548V3.26177C30.332 1.45979 31.7841 0 33.5766 0H33.8217V13.7262H34.8534C35.9871 13.7262 36.7321 13.3364 37.1599 12.5992L40.0917 7.62636L44.069 7.62238L41.6997 11.7141ZM59.7184 22.4694C57.9936 24.1309 55.9208 24.9635 53.5129 24.9635C51.1279 24.9635 49.0671 24.13 47.3422 22.4694C45.6121 20.8015 44.7493 18.6791 44.7493 16.1214C44.7493 11.1313 48.5408 7.27881 53.5129 7.27881C55.8997 7.27881 57.9659 8.11845 59.7013 9.79149C61.4424 11.4694 62.3116 13.5857 62.3116 16.1214C62.3116 18.6791 61.4486 20.8015 59.7184 22.4694ZM57.1993 12.167C56.237 11.1556 55.0154 10.6479 53.5133 10.6479C50.3012 10.6479 48.3783 13.0017 48.3783 16.1214C48.3783 19.1978 50.3468 21.5944 53.5133 21.5944C56.681 21.5944 58.6488 19.1978 58.6488 16.1214C58.6488 14.488 58.1604 13.1774 57.1993 12.167ZM22.861 12.167C21.8991 11.1556 20.6771 10.6479 19.1754 10.6479C15.9633 10.6479 14.0404 13.0017 14.0404 16.1214C14.0404 19.1978 16.0089 21.5944 19.1754 21.5944C22.3427 21.5944 24.3105 19.1978 24.3105 16.1214C24.3105 14.488 23.8225 13.1774 22.861 12.167Z" fill="#03AC0E"/>
  <path fill-rule="evenodd" clip-rule="evenodd" d="M5.10826 24.617C1.69408 24.617 0 22.2831 0 19.0239V6.65869C0 4.85711 1.45347 3.39681 3.24595 3.39681H3.49105V7.62542H9.38862V10.995H3.49105V19.4141C3.49105 20.8457 4.12663 21.2479 5.48781 21.2479H9.38862V24.617H5.10826ZM25.3801 22.4694C23.6557 24.1309 21.583 24.9635 19.175 24.9635C16.7896 24.9635 14.7287 24.13 13.0043 22.4694C11.2742 20.8015 10.4115 18.6791 10.4115 16.1214C10.4115 11.1313 14.2029 7.27881 19.175 7.27881C21.5614 7.27881 23.628 8.11845 25.3629 9.79149C27.1041 11.4694 27.9737 13.5857 27.9737 16.1214C27.9737 18.6791 27.1102 20.8015 25.3801 22.4694ZM41.6997 11.7141C41.1876 12.5771 40.7905 13.196 40.5112 13.5699C40.2033 13.9765 39.8993 14.3014 39.5981 14.5261C42.0239 15.3136 42.9274 17.0025 42.9274 19.5188V24.617H42.6823C40.8898 24.617 39.4364 23.1567 39.4364 21.3548V19.8648C39.4364 18.2355 38.7094 17.1301 36.9917 17.1301H33.8217V24.617H33.5766C31.7841 24.617 30.332 23.1567 30.332 21.3548V3.26177C30.332 1.45979 31.7841 0 33.5766 0H33.8217V13.7262H34.8534C35.9871 13.7262 36.7321 13.3364 37.1599 12.5992L40.0917 7.62636L44.069 7.62238L41.6997 11.7141ZM59.7184 22.4694C57.9936 24.1309 55.9208 24.9635 53.5129 24.9635C51.1279 24.9635 49.0671 24.13 47.3422 22.4694C45.6121 20.8015 44.7493 18.6791 44.7493 16.1214C44.7493 11.1313 48.5408 7.27881 53.5129 7.27881C55.8997 7.27881 57.9659 8.11845 59.7013 9.79149C61.4424 11.4694 62.3116 13.5857 62.3116 16.1214C62.3116 18.6791 61.4486 20.8015 59.7184 22.4694ZM57.1993 12.167C56.237 11.1556 55.0154 10.6479 53.5133 10.6479C50.3012 10.6479 48.3783 13.0017 48.3783 16.1214C48.3783 19.1978 50.3468 21.5944 53.5133 21.5944C56.681 21.5944 58.6488 19.1978 58.6488 16.1214C58.6488 14.488 58.1604 13.1774 57.1993 12.167ZM22.861 12.167C21.8991 11.1556 20.6771 10.6479 19.1754 10.6479C15.9633 10.6479 14.0404 13.0017 14.0404 16.1214C14.0404 19.1978 16.0089 21.5944 19.1754 21.5944C22.3427 21.5944 24.3105 19.1978 24.3105 16.1214C24.3105 14.488 23.8225 13.1774 22.861 12.167Z" fill="white"/>
</svg>