<svg width="97" height="21" viewBox="0 0 97 21" fill="none" xmlns="http://www.w3.org/2000/svg">
<g id="Group 4340">
<path id="Shape" fill-rule="evenodd" clip-rule="evenodd" d="M51.8587 14.7453C50.8043 15.8203 49.5432 16.3608 48.082 16.3608C46.8998 16.3608 45.8956 16.1187 44.8703 15.5201V13.0554C45.6949 13.6175 46.7312 14.1528 47.7528 14.1528C49.8844 14.1528 51.1536 12.6781 51.1536 10.5884C51.1536 8.49698 49.8409 6.97867 47.7087 6.97867C46.756 6.97867 45.9839 7.32295 45.3808 8.01267C44.7342 8.75991 44.3999 9.8281 44.3999 11.2402V20.9725H44.2394C43.0643 20.9725 42.1123 20.0154 42.1123 18.8347V10.8751C42.1123 7.49737 44.1668 4.77031 47.698 4.77031C49.4415 4.77031 50.8578 5.3695 51.9316 6.5733C52.9412 7.69815 53.441 9.12334 53.441 10.8383C53.441 12.3645 52.9131 13.6696 51.8587 14.7453ZM76.6285 14.6627C75.5781 15.7957 74.2266 16.3607 72.5888 16.3607C70.8594 16.3607 69.4504 15.7615 68.3772 14.5577C67.3683 13.4189 66.8679 11.9926 66.8679 10.2929C66.8679 7.28429 69.1781 4.77017 72.2188 4.77017C73.3917 4.77017 74.4099 5.01899 75.4383 5.58607V8.07589C74.614 7.51377 73.5783 6.97854 72.5567 6.97854C70.4245 6.97854 69.1547 8.45283 69.1547 10.5434C69.1547 12.6053 70.4981 14.1526 72.6002 14.1526C73.5516 14.1526 74.3357 13.7942 74.9626 13.072C75.5854 12.3545 75.9093 11.3003 75.9093 9.8841V2.13771C75.9093 0.956724 76.862 0 78.0361 0H78.1967V10.2475C78.1967 12.0522 77.6775 13.5294 76.6285 14.6627ZM83.0876 3.67636C82.8474 3.94658 82.5036 4.07096 82.0841 4.07096C81.2986 4.07096 80.7366 3.48889 80.7366 2.70572C80.7366 1.90401 81.2879 1.36296 82.0841 1.36296C82.8495 1.36296 83.4308 1.93351 83.4308 2.70572C83.4308 3.08761 83.3198 3.4151 83.0876 3.67636ZM94.7118 9.88423C94.7118 8.97782 94.3706 8.26028 93.6855 7.71668C93.068 7.22748 92.2966 6.97867 91.3579 6.97867C89.2879 6.97867 87.9585 8.60543 87.9585 10.6113C87.9585 12.5419 89.3675 14.1528 91.3365 14.1528C92.706 14.1528 93.4386 13.3488 94.2194 12.3472V15.2351C93.8213 15.5348 93.3637 15.8614 92.8967 16.0532C92.4036 16.2601 91.8149 16.3608 91.1351 16.3608C87.8421 16.3608 85.6704 13.6198 85.6704 10.4524C85.6704 8.82588 86.1729 7.48118 87.1851 6.43273C88.2589 5.32146 89.6672 4.77031 91.392 4.77031C94.6609 4.77031 96.9999 6.65693 96.9999 10.0659V16.1337H96.84C95.6645 16.1337 94.7118 15.1767 94.7118 13.9957V9.88423ZM63.3956 9.23278C63.1066 8.33412 62.744 7.89209 61.9103 7.42423C59.928 6.31095 57.9771 7.25878 57.0692 9.22408L63.3956 9.23278ZM61.6496 16.3265C60.1884 16.6387 58.7547 16.398 57.3557 15.6122C55.9909 14.8464 55.0776 13.7074 54.6193 12.2024C53.6934 9.15854 55.5901 5.76658 58.6416 4.94527C60.1536 4.53816 61.6041 4.72248 62.9816 5.49609C65.2697 6.78178 66.104 8.77023 65.9582 11.3324L56.7415 11.3139C56.8773 12.3589 57.5216 13.1765 58.4282 13.6851C59.3468 14.2009 60.1911 14.3242 60.9745 14.0801C61.8449 13.8055 62.5508 13.0917 63.1248 12.4275L65.0028 13.8029C64.2368 15.1806 63.1937 15.9962 61.6496 16.3265ZM80.9395 4.99687H83.2269V16.1328H83.0657C81.8922 16.1328 80.9395 15.1758 80.9395 13.9948V4.99687Z" fill="#03AC0E"/>
<path id="Shape_2" fill-rule="evenodd" clip-rule="evenodd" d="M3.34787 16.1327C1.11027 16.1327 0 14.6031 0 12.4671V4.36316C0 3.18244 0.952576 2.22538 2.12734 2.22538H2.28798V4.99674H6.15314V7.2051H2.28798V12.7229C2.28798 13.6611 2.70452 13.9247 3.59662 13.9247H6.15314V16.1327H3.34787ZM16.6339 14.7259C15.5038 15.8149 14.1453 16.3605 12.5672 16.3605C11.0039 16.3605 9.65316 15.8143 8.52302 14.7259C7.38913 13.6329 6.82373 12.2419 6.82373 10.5656C6.82373 7.29519 9.3086 4.77031 12.5672 4.77031C14.1312 4.77031 15.4856 5.32059 16.6227 6.41708C17.7638 7.51677 18.3337 8.90376 18.3337 10.5656C18.3337 12.2419 17.7678 13.6329 16.6339 14.7259ZM27.3294 7.67721C26.9937 8.24282 26.7335 8.64846 26.5504 8.89346C26.3486 9.15994 26.1494 9.37289 25.952 9.52015C27.5418 10.0362 28.134 11.1432 28.134 12.7923V16.1336H27.9733C26.7986 16.1336 25.846 15.1765 25.846 13.9955V13.0191C25.846 11.9512 25.3696 11.2268 24.2438 11.2268H22.1662V16.1336H22.0056C20.8308 16.1336 19.8792 15.1765 19.8792 13.9955V2.13771C19.8792 0.956725 20.8308 0 22.0056 0H22.1662V8.99589H22.8424C23.5854 8.99589 24.0736 8.74045 24.354 8.25727L26.2755 4.99818L28.8822 4.99557L27.3294 7.67721ZM39.1386 14.7259C38.0082 15.8149 36.6497 16.3605 35.0716 16.3605C33.5085 16.3605 32.1579 15.8143 31.0274 14.7259C29.8935 13.6329 29.3281 12.2419 29.3281 10.5656C29.3281 7.29519 31.813 4.77031 35.0716 4.77031C36.6359 4.77031 37.99 5.32059 39.1274 6.41708C40.2684 7.51677 40.8381 8.90376 40.8381 10.5656C40.8381 12.2419 40.2725 13.6329 39.1386 14.7259ZM37.4877 7.97384C36.857 7.31103 36.0564 6.97831 35.0719 6.97831C32.9668 6.97831 31.7065 8.52092 31.7065 10.5655C31.7065 12.5817 32.9967 14.1524 35.0719 14.1524C37.148 14.1524 38.4377 12.5817 38.4377 10.5655C38.4377 9.49503 38.1176 8.63606 37.4877 7.97384ZM14.9826 7.97384C14.3521 7.31103 13.5513 6.97831 12.5671 6.97831C10.4619 6.97831 9.20166 8.52092 9.20166 10.5655C9.20166 12.5817 10.4918 14.1524 12.5671 14.1524C14.6429 14.1524 15.9325 12.5817 15.9325 10.5655C15.9325 9.49503 15.6127 8.63606 14.9826 7.97384Z" fill="#03AC0E"/>
</g>
</svg>